<mxfile host="www.draw.io" modified="2020-05-03T11:55:18.789Z" agent="5.0 (Macintosh; Intel Mac OS X 10_15_4) AppleWebKit/537.36 (KHTML, like Gecko) Chrome/81.0.4044.129 Safari/537.36" etag="qmjc-1oZtZabpsp44avc" version="13.0.5" type="github">
  <diagram id="bD53E8nyOGbHJpfK05qM" name="architecture">
    <mxGraphModel dx="1042" dy="662" grid="1" gridSize="10" guides="1" tooltips="1" connect="1" arrows="1" fold="1" page="1" pageScale="1" pageWidth="1100" pageHeight="850" math="0" shadow="0">
      <root>
        <mxCell id="0" />
        <mxCell id="1" parent="0" />
      </root>
    </mxGraphModel>
  </diagram>
</mxfile>
